<svg xmlns="http://www.w3.org/2000/svg" version="1" width="744" height="970" viewBox="0 82 744 970">
  <path d="M393.0938 693.4688c4.5204.1376 9.042.2686 13.5625.4062 5.3262-9.6352 10.3368-19.5523 15.375-29.5 5.038-9.9477 10.1034-19.917 15.5-29.6563 2.6982-4.8696 5.4658-9.6863 8.375-14.4062 2.909-4.72 5.9554-9.3387 9.1562-13.8438 3.2008-4.505 6.583-8.9 10.1563-13.125 3.5732-4.225 7.3483-8.2763 11.375-12.1562 1.972-1.893 4.0044-3.73 6.0937-5.5 2.0893-1.77 4.2408-3.4858 6.4375-5.125 2.1967-1.6392 4.4243-3.2178 6.7188-4.7188 2.2944-1.501 4.6487-2.926 7.0312-4.2812 2.3825-1.3552 4.789-2.6107 7.25-3.8125 2.461-1.2018 4.9704-2.3342 7.5-3.375 2.5296-1.0408 5.099-2.0027 7.6875-2.875 2.5886-.8723 5.2058-1.6475 7.8438-2.3438 2.638-.6962 5.291-1.331 7.9687-1.8437 2.6776-.5127 5.3862-.9285 8.0938-1.25 2.7075-.3215 5.4283-.5335 8.1562-.6563 2.728-.1227 5.449-.146 8.1875-.0625 2.7385.0836 5.4794.265 8.2188.5625 2.7393.2975 5.488.7 8.2187 1.2188 2.7306.5188 5.444 1.1584 8.1563 1.9063 2.712.7478 5.4097 1.6093 8.0937 2.5937 3.024 1.109 6.073 2.382 9.0938 3.8438 3.0208 1.4616 6.027 3.122 8.9375 4.9687 2.9105 1.8468 5.713 3.8916 8.4062 6.1563 2.693 2.2646 5.2565 4.7536 7.625 7.4687 2.3685 2.715 4.5633 5.6456 6.5 8.8438.9684 1.599 1.8784 3.274 2.7188 5 .8403 1.726 1.6135 3.518 2.3125 5.375.699 1.857 1.2996 3.7892 1.8437 5.7812.544 1.992 1.0303 4.025 1.4063 6.1563.376 2.131.6493 4.3506.8437 6.625.1944 2.2743.313 4.6095.3125 7.0312-.0006 2.4414-.1318 4.8664-.375 7.25-.2432 2.3836-.5956 4.7348-1.0625 7.0625-.467 2.3277-1.047 4.6326-1.7188 6.9063-.6718 2.2736-1.4544 4.5285-2.3125 6.75-.858 2.2214-1.787 4.3913-2.8125 6.5625-1.0253 2.171-2.1386 4.3148-3.3125 6.4375-2.3476 4.2452-4.9837 8.4062-7.8125 12.4687-2.8287 4.0625-5.8406 8.043-9 11.9375-3.1593 3.8945-6.473 7.696-9.8125 11.4375-6.6588 7.4606-13.521 14.6532-20 21.5938 160.3342-27.243 144.1627-164.0937 89.0938-213.9063-44.6943-40.4025-93.4014-46.74-130.9688-34-79.6356 25.087-144.4406 104.8134-155.0625 224.0938z" fill="#f2f2f2" fill-rule="evenodd"/>
  <path d="M393.0938 693.4688c-.7647 8.5874-1.3123 17.3515-1.5 26.3437 0 0 14.7602 96.128 30 111.7188 16.165 16.5374 92.5546 62.375 155.2187 62.375-81.6852-68.5865-111.2414-89.206-120.875-141.2188-9.6336-52.013 21.4696-109.2583 43.8125-121.125 13.868-9.9286 43.5402-14.455 69.8125-2.9063 34.3697 17.3492 35.837 66.5147 18.6563 88.9688.6257-.102 1.192-.2383 1.8125-.3438 6.479-6.9405 13.341-14.133 20-21.5937 3.3394-3.7415 6.653-7.543 9.8125-11.4375 3.1593-3.8945 6.1712-7.875 9-11.9375 2.8287-4.0625 5.4648-8.2235 7.8125-12.4688 1.1738-2.1226 2.287-4.2663 3.3125-6.4375 1.0253-2.171 1.9544-4.341 2.8125-6.5625.858-2.2214 1.6406-4.4763 2.3125-6.75.6718-2.2736 1.2518-4.5785 1.7187-6.9062.467-2.3277.8193-4.679 1.0625-7.0625.2432-2.3836.3744-4.8086.375-7.25.0006-2.4217-.118-4.757-.3125-7.0313-.1944-2.2743-.4678-4.4938-.8438-6.625-.376-2.131-.862-4.1642-1.4062-6.1562-.544-1.992-1.1448-3.9243-1.8438-5.7813-.699-1.857-1.472-3.649-2.3125-5.375-.8403-1.726-1.7503-3.401-2.7187-5-1.9367-3.198-4.1315-6.1286-6.5-8.8437-2.3685-2.715-4.932-5.204-7.625-7.4688-2.693-2.2646-5.4957-4.3094-8.4063-6.1562-2.9105-1.8468-5.9166-3.507-8.9375-4.9688-3.0208-1.4616-6.0696-2.7346-9.0937-3.8437-2.684-.9844-5.3816-1.846-8.0938-2.5938-2.712-.7478-5.4256-1.3874-8.1562-1.9062-2.7306-.5188-5.4794-.9213-8.2188-1.2188-2.7393-.2974-5.4802-.479-8.2187-.5625-2.7385-.0835-5.4596-.0602-8.1875.0625-2.728.1228-5.4487.3348-8.1563.6563-2.7075.3215-5.416.7373-8.0937 1.25-2.6776.5127-5.3308 1.1475-7.9688 1.8438-2.638.6962-5.255 1.4714-7.8437 2.3437-2.5886.8723-5.158 1.8342-7.6875 2.875-2.5296 1.0408-5.039 2.1732-7.5 3.375-2.461 1.2018-4.8675 2.4573-7.25 3.8125-2.3825 1.3552-4.7368 2.7803-7.0313 4.2813-2.2944 1.501-4.522 3.0795-6.7187 4.7187-2.1967 1.6392-4.3482 3.355-6.4375 5.125-2.0893 1.77-4.1216 3.607-6.0938 5.5-4.0266 3.88-7.8017 7.9312-11.375 12.1563-3.5732 4.225-6.9554 8.62-10.1562 13.125-3.2008 4.505-6.247 9.1238-9.1563 13.8437-2.909 4.72-5.6767 9.5366-8.375 14.4063-5.3965 9.7393-10.4618 19.7085-15.5 29.6562-5.038 9.9477-10.0487 19.8648-15.375 29.5-4.5204-.1376-9.042-.2686-13.5625-.4063z" fill="#f4c70a" fill-rule="evenodd"/>
  <path d="M369.7815 1041.0334c.2032.017.388-.13.7812-.5312 33.4735-32.1385 40.7452-51.9556 48.0938-87.3125 37.1974 2.2565 64.0256-31.1677 69.8125-47.5625-44.9324-17.3566-68.8642-48.397-70.9688-87.3125l-15-75.5938c0-121.718 23.9548-160.519 86.75-313.375 31.6323-72.253 12.7738-161.596-43.75-243.844-20.2382-29.483-45.87-55.978-74.9375-84.469-.3445-.304-.5622-.456-.7813-.407v940.406z" fill="#7b00ff" fill-rule="evenodd"/>
  <path d="M153.375 463.4688c-29.597.4448-62.2414 12.1295-92.9688 39.9062C5.3374 553.1876-10.834 690.0382 149.5 717.2813c-6.479-6.9406-13.341-14.1332-20-21.5938-3.3394-3.7415-6.6532-7.543-9.8125-11.4375s-6.1713-7.875-9-11.9375c-2.8287-4.0625-5.465-8.2235-7.8125-12.4688-1.1738-2.1226-2.2872-4.2663-3.3125-6.4375-1.0253-2.171-1.9545-4.341-2.8125-6.5625-.858-2.2214-1.6406-4.4763-2.3125-6.75-.672-2.2736-1.2518-4.5785-1.7188-6.9062-.467-2.3277-.8192-4.679-1.0624-7.0625-.2433-2.3836-.3744-4.8086-.375-7.25-.0007-2.4217.118-4.757.3124-7.0313.1944-2.2743.468-4.4938.8438-6.625.376-2.131.862-4.1642 1.4063-6.1562.544-1.992 1.1448-3.9243 1.8437-5.7813.699-1.857 1.4722-3.649 2.3125-5.375.8404-1.726 1.7504-3.401 2.7188-5 1.9367-3.198 4.1315-6.1286 6.5-8.8437 2.3684-2.715 4.932-5.2042 7.625-7.4688 2.693-2.2646 5.4957-4.3094 8.4062-6.1562s5.9166-3.5072 8.9375-4.9688c3.021-1.4616 6.0697-2.7346 9.0938-3.8437 2.684-.9844 5.3816-1.846 8.0937-2.5938 2.7122-.7478 5.4256-1.3874 8.1563-1.9062 2.7306-.5188 5.4793-.9213 8.2187-1.2188 2.7394-.2974 5.4803-.479 8.2188-.5625 2.7384-.0835 5.4596-.0602 8.1875.0625 2.7278.1228 5.4486.3348 8.1562.6563 2.7076.3215 5.416.7373 8.0938 1.25 2.6776.5127 5.3307 1.1475 7.9687 1.8438 2.638.6962 5.255 1.4714 7.8438 2.3437 2.5886.8723 5.1578 1.8342 7.6875 2.875 2.5296 1.0408 5.039 2.1732 7.5 3.375 2.461 1.2018 4.8674 2.4573 7.25 3.8125 2.3825 1.3552 4.7367 2.7803 7.0312 4.2813s4.522 3.0795 6.7188 4.7187c2.1967 1.6392 4.348 3.355 6.4375 5.125 2.0893 1.77 4.1215 3.607 6.0937 5.5 4.0266 3.88 7.8017 7.9312 11.375 12.1563 3.5733 4.225 6.9555 8.62 10.1563 13.125 3.2007 4.505 6.247 9.1238 9.1562 13.8437 2.909 4.72 5.6767 9.5366 8.375 14.4063 5.3965 9.7393 10.462 19.7085 15.5 29.6562 5.038 9.9477 10.0487 19.8648 15.375 29.5 4.5205-.1376 9.042-.2686 13.5625-.4063C335.8157 574.1884 271.0107 494.462 191.375 469.375c-11.7398-3.9812-24.547-6.1085-38-5.9063zm131.7813 262.25c.4955 8.9765.0903 18.0446-1.5625 26.9687-9.6336 52.0128-39.19 72.6323-120.875 141.2188 62.664 0 139.0536-45.8376 155.2187-62.375 13.7676-14.0848 26.5754-90.524 29.0313-105.8125h-61.8125z" fill="#f2f2f2" fill-rule="evenodd" />
  <path d="M369.7815 1041.0334V100.627c-.219.05-.4558.2913-.8125.7502-28.9866 28.42-54.713 54.7077-74.9063 84.125-56.5237 82.2478-75.4137 171.591-43.7813 243.8438 62.7952 152.8565 86.7502 191.657 86.75 313.375l-14.9687 75.5937c-2.1046 38.9154-26.0674 69.9558-71 87.3125 5.787 16.3948 32.615 49.819 69.8125 47.5625 7.3487 35.357 14.6202 55.174 48.0938 87.3125.408.3682.626.5155.8125.5312z" fill="#f4c70a" fill-rule="evenodd"/>
  <path d="M173.9688 545.3438c-2.7385.0835-5.4794.265-8.2188.5625-2.7394.2974-5.488.6998-8.2188 1.2187-2.7306.5188-5.444 1.1584-8.1562 1.9063-2.7122.7478-5.4097 1.6093-8.0938 2.5937-3.024 1.109-6.0728 2.382-9.0937 3.8438-3.021 1.4616-6.027 3.122-8.9375 4.9687-2.9105 1.8468-5.7132 3.8916-8.4063 6.1563-2.693 2.2646-5.2565 4.7536-7.625 7.4687-2.3684 2.715-4.5632 5.6456-6.5 8.8438-.9683 1.599-1.8783 3.274-2.7187 5s-1.6136 3.518-2.3125 5.375c-.699 1.857-1.2996 3.7892-1.8438 5.7812-.544 1.992-1.0303 4.025-1.4062 6.1563-.376 2.131-.6494 4.3505-.8438 6.625-.1943 2.2743-.313 4.6095-.3124 7.0312.0006 2.4414.1318 4.8664.375 7.25.243 2.3836.5955 4.7348 1.0624 7.0625.467 2.3277 1.047 4.6326 1.7188 6.9063.672 2.2736 1.4545 4.5285 2.3125 6.75.858 2.2214 1.7872 4.3913 2.8125 6.5625 1.0253 2.171 2.1387 4.3148 3.3125 6.4375 2.3476 4.2452 4.9838 8.4062 7.8125 12.4687 2.8287 4.0625 5.8407 8.043 9 11.9375 3.1593 3.8945 6.473 7.696 9.8125 11.4375 6.659 7.4606 13.521 14.6532 20 21.5938.6205.1054 1.1867.2416 1.8125.3437-17.181-22.454-15.7134-71.6196 18.6563-88.9688 26.2723-11.5488 55.9445-7.0223 69.8125 2.9063 18.5094 9.8307 42.9823 50.8143 45.375 94.1563h61.8125c.2626-1.635.9687-5.9063.9687-5.9063-.1877-8.9922-.7353-17.7563-1.5-26.3438-4.5205.1377-9.042.2686-13.5625.4063-5.3263-9.6352-10.337-19.5523-15.375-29.5-5.038-9.9477-10.1035-19.917-15.5-29.6563-2.6983-4.8696-5.466-9.6863-8.375-14.4062-2.909-4.72-5.9555-9.3387-9.1563-13.8438-3.2007-4.505-6.583-8.9-10.1562-13.125-3.5733-4.225-7.3484-8.2763-11.375-12.1562-1.9722-1.893-4.0044-3.73-6.0938-5.5-2.0893-1.77-4.2407-3.4858-6.4375-5.125-2.1967-1.6392-4.4242-3.2178-6.7187-4.7188s-4.6487-2.926-7.0313-4.2812c-2.3825-1.3552-4.789-2.6107-7.25-3.8125-2.461-1.2018-4.9703-2.3342-7.5-3.375-2.5296-1.0408-5.0988-2.0027-7.6875-2.875-2.5886-.8723-5.2057-1.6475-7.8437-2.3438-2.638-.6962-5.291-1.331-7.9688-1.8437-2.6776-.5127-5.386-.9285-8.0937-1.25-2.7076-.3215-5.4284-.5335-8.1563-.6563-2.7278-.1227-5.449-.146-8.1875-.0625z" fill="#7b00ff" fill-rule="evenodd"/>
  <path d="M369.7806 100.6272c-.219.0498-.4558.291-.8125.75-28.986 28.42-54.712 54.7077-74.906 84.125-56.524 82.2478-75.414 171.5912-43.781 243.8437 22.556 54.905 40.058 95.084 53.281 129.687-28.348-44.98-67.967-75.736-112.156-89.657-37.567-12.74-86.305-6.403-131 34-55.282 50.005-71.391 187.756 90.938 214.25-17.181-22.454-15.713-71.62 18.657-88.969 26.2724-11.549 55.9446-7.0227 69.8126 2.906 22.343 11.8666 53.446 69.112 43.8126 121.125-9.6336 52.013-39.2212 72.6322-120.9062 141.2186 62.664 0 139.0538-45.8374 155.219-62.375 1.089-1.114 2.1714-2.6594 3.25-4.531-4.9927 34.847-28.585 62.579-70.125 78.625 5.787 16.395 32.615 49.819 69.8126 47.5626 7.3484 35.357 14.62 55.174 48.0936 87.3125.408.3683.626.5156.8125.5314.203.017.388-.1302.7814-.5313 33.473-32.1382 40.745-51.9553 48.0933-87.3122 37.1974 2.256 64.0257-31.168 69.8125-47.563-41.515-16.0363-65.086-43.7442-70.0936-78.5622 1.0676 1.8443 2.1415 3.3664 3.219 4.4685 16.165 16.5374 92.555 62.375 155.219 62.375-81.685-68.5864-111.2414-89.206-120.875-141.2187-9.6335-52.013 21.4697-109.2583 43.8126-121.125 13.8676-9.9286 43.54-14.4552 69.8123-2.9063 34.3698 17.349 35.837 66.5144 18.6566 88.9685 162.328-26.4928 146.188-164.2438 90.906-214.2494-44.6944-40.402-93.4016-46.74-130.969-34-44.224 13.932-83.897 44.712-112.25 89.75 13.2277-34.626 30.7656-74.821 53.3438-129.781 31.632-72.2525 12.7732-161.596-43.75-243.844-20.239-29.4822-45.87-55.9773-74.938-84.4685-.3447-.3033-.5625-.456-.7814-.406z" fill="none" stroke="#000" stroke-width="5.537"/>
  <path d="M227.707 722.8562h288.656v-.0313c0-15.979-12.9585-28.938-28.9375-28.938H253.3632v.219c-14.4272 1.64-25.6563 13.888-25.6563 28.75z" fill="#7b00ff"/>
  <path d="M227.707 722.8562c0 14.8615 11.229 27.1094 25.6562 28.75v.1875h234.0625v-.0313c15.9685 0 28.9204-12.9418 28.9375-28.9062H227.707z" fill="#7b00ff"/>
  <path d="M253.3632 693.8874v.2188c-14.4272 1.6406-25.6563 13.8884-25.6563 28.75s11.229 27.1094 25.656 28.75v.1875h234.062v-.0313c15.968 0 28.92-12.9418 28.937-28.9062v-.0313c0-15.979-12.959-28.938-28.938-28.938H253.363z" fill="none" stroke="#000" stroke-width="4.44"/>
</svg>